<svg width="200" height="200" viewBox="0 0 200 200" fill="none" xmlns="http://www.w3.org/2000/svg">
	<rect width="200" height="200" rx="20" fill="#1E3A5F" />
	<g filter="url(#filter0_i_438_266)">
		<path
			d="M88.2716 44.6507C85.4239 46.2169 82.5761 47.7831 79.7284 49.3493C80.5264 51.0812 81.3244 52.8132 82.1224 54.5451C96.4862 85.72 110.85 116.895 125.214 148.07C126.012 149.802 126.81 151.534 127.608 153.266C135.202 149.089 142.796 144.913 150.39 140.736C149.354 139.135 148.319 137.533 147.284 135.932C128.648 107.106 110.013 78.2805 91.3775 49.455C90.3422 47.8535 89.3069 46.2521 88.2716 44.6507Z"
			fill="#A3C1DA"
		/>
		<path
			d="M17.2184 140.47C24.8123 144.647 32.4061 148.823 40 153C40.798 151.268 41.596 149.536 42.394 147.804C56.7583 116.63 71.1225 85.4549 85.4867 54.2802C86.2847 52.5483 87.0827 50.8163 87.8807 49.0844C85.033 47.5182 82.1853 45.9519 79.3376 44.3857C78.3023 45.9871 77.267 47.5885 76.2317 49.1899C57.5959 78.0152 38.9601 106.841 20.3243 135.666C19.289 137.267 18.2537 138.869 17.2184 140.47Z"
			fill="#A3C1DA"
		/>
		<path
			d="M33.6186 148.42C33.6186 148.42 63.7383 101.955 94.297 90.3866C124.856 78.8183 177.619 93.4195 177.619 93.4195"
			stroke="#A3C1DA"
			stroke-width="14"
			stroke-miterlimit="16"
		/>
	</g>
	<defs>
		<filter
			id="filter0_i_438_266"
			x="17.2184"
			y="44.3857"
			width="162.264"
			height="112.88"
			filterUnits="userSpaceOnUse"
			color-interpolation-filters="sRGB"
		>
			<feFlood flood-opacity="0" result="BackgroundImageFix" />
			<feBlend mode="normal" in="SourceGraphic" in2="BackgroundImageFix" result="shape" />
			<feColorMatrix
				in="SourceAlpha"
				type="matrix"
				values="0 0 0 0 0 0 0 0 0 0 0 0 0 0 0 0 0 0 127 0"
				result="hardAlpha"
			/>
			<feOffset dy="4" />
			<feGaussianBlur stdDeviation="2" />
			<feComposite in2="hardAlpha" operator="arithmetic" k2="-1" k3="1" />
			<feColorMatrix type="matrix" values="0 0 0 0 0 0 0 0 0 0 0 0 0 0 0 0 0 0 0.25 0" />
			<feBlend mode="normal" in2="shape" result="effect1_innerShadow_438_266" />
		</filter>
	</defs>
</svg>
